<svg id="Layer_1" data-name="Layer 1" xmlns="http://www.w3.org/2000/svg" xmlns:xlink="http://www.w3.org/1999/xlink" viewBox="0 0 100 100"><defs><style>.cls-1{fill:#ff3e3e;}.cls-2{fill:#ee3a3d;}.cls-3{opacity:0.3;fill:url(#linear-gradient);}.cls-4{fill:#b32d2f;}.cls-5{fill:#802e19;}</style><linearGradient id="linear-gradient" x1="74.1" y1="29.34" x2="47.19" y2="52.41" gradientUnits="userSpaceOnUse"><stop offset="0" stop-color="#fff"/><stop offset="0.05" stop-color="#fff" stop-opacity="0.88"/><stop offset="0.15" stop-color="#fff" stop-opacity="0.68"/><stop offset="0.26" stop-color="#fff" stop-opacity="0.5"/><stop offset="0.37" stop-color="#fff" stop-opacity="0.34"/><stop offset="0.48" stop-color="#fff" stop-opacity="0.22"/><stop offset="0.6" stop-color="#fff" stop-opacity="0.12"/><stop offset="0.72" stop-color="#fff" stop-opacity="0.05"/><stop offset="0.85" stop-color="#fff" stop-opacity="0.01"/><stop offset="1" stop-color="#fff" stop-opacity="0"/><stop offset="1" stop-color="#232020" stop-opacity="0"/></linearGradient></defs><title>app emojis2</title><rect class="cls-1" width="100" height="100" rx="11.56"/><circle class="cls-2" cx="50.14" cy="50" r="45.68"/><circle class="cls-3" cx="50" cy="50" r="41.86"/><path class="cls-4" d="M13.89,50.18C13.24,25,24.61,11.92,44.09,4.68A45.69,45.69,0,1,0,62,94a32.54,32.54,0,0,1-5.77.36C35.37,93.34,14.53,75.4,13.89,50.18Z"/><ellipse class="cls-5" cx="69.57" cy="48.21" rx="6.01" ry="7.82"/><path class="cls-5" d="M77.34,32.44s-1.49.56-3.55,1.5a45,45,0,0,0-9.3,5.42c-4.64,3.8-4.81-3.78,4.9-7.95S79.87,31.39,77.34,32.44Z"/><path class="cls-5" d="M19.93,32.44s1.49.56,3.55,1.5a45.29,45.29,0,0,1,9.3,5.42c4.64,3.8,4.81-3.78-4.9-7.95S17.4,31.39,19.93,32.44Z"/><path class="cls-5" d="M59.64,68.42c0,5.19-5-4.71-11-4.69s-11,10-11,4.77,2.58-11.77,11-11.8C56.77,56.66,59.62,63.22,59.64,68.42Z"/><ellipse class="cls-5" cx="25.51" cy="48.21" rx="6.01" ry="7.82"/></svg>