<svg id="Layer_1" data-name="Layer 1" xmlns="http://www.w3.org/2000/svg" xmlns:xlink="http://www.w3.org/1999/xlink" viewBox="0 0 100 100"><defs><style>.cls-1{fill:#ff3e3e;}.cls-2{fill:#ee3a3d;}.cls-3{opacity:0.3;fill:url(#linear-gradient);}.cls-4{fill:#b32d2f;}.cls-5{fill:#802e19;}</style><linearGradient id="linear-gradient" x1="74.1" y1="29.34" x2="47.19" y2="52.41" gradientUnits="userSpaceOnUse"><stop offset="0" stop-color="#fff"/><stop offset="0.05" stop-color="#fff" stop-opacity="0.88"/><stop offset="0.15" stop-color="#fff" stop-opacity="0.68"/><stop offset="0.26" stop-color="#fff" stop-opacity="0.5"/><stop offset="0.37" stop-color="#fff" stop-opacity="0.34"/><stop offset="0.48" stop-color="#fff" stop-opacity="0.22"/><stop offset="0.6" stop-color="#fff" stop-opacity="0.12"/><stop offset="0.72" stop-color="#fff" stop-opacity="0.05"/><stop offset="0.85" stop-color="#fff" stop-opacity="0.01"/><stop offset="1" stop-color="#fff" stop-opacity="0"/><stop offset="1" stop-color="#232020" stop-opacity="0"/></linearGradient></defs><title>app emojis2</title><rect class="cls-1" width="100" height="100" rx="11.56"/><circle class="cls-2" cx="50.14" cy="50" r="45.68"/><circle class="cls-3" cx="50" cy="50" r="41.86"/><path class="cls-4" d="M13.89,50.18C13.24,25,24.61,11.92,44.09,4.68A45.69,45.69,0,1,0,62,94a32.54,32.54,0,0,1-5.77.36C35.37,93.34,14.53,75.4,13.89,50.18Z"/><path class="cls-5" d="M32.44,72.37a17.56,17.56,0,0,1,35.12,0c0,9.69-7.86,1.15-17.56,1.15S32.44,82.06,32.44,72.37Z"/><ellipse class="cls-5" cx="28.86" cy="44.99" rx="6.91" ry="7.77"/><ellipse class="cls-5" cx="70.65" cy="44.99" rx="6.91" ry="7.77"/><path class="cls-5" d="M18.88,25.34s1.45.65,3.46,1.7a45.77,45.77,0,0,1,9,5.9c4.43,4,5-3.51-4.47-8.2S16.41,24.16,18.88,25.34Z"/><path class="cls-5" d="M80.73,25.77s-1.47.6-3.51,1.6A45.66,45.66,0,0,0,68.06,33c-4.53,3.92-4.9-3.65,4.7-8.07S83.23,24.66,80.73,25.77Z"/></svg>