<svg id="Layer_1" data-name="Layer 1" xmlns="http://www.w3.org/2000/svg" xmlns:xlink="http://www.w3.org/1999/xlink" viewBox="0 0 100 100"><defs><style>.cls-1{fill:#fc7849;}.cls-2{fill:#ef6f06;}.cls-3{opacity:0.3;fill:url(#linear-gradient);}.cls-4{fill:#cc5d0a;}.cls-5{fill:#802e19;}</style><linearGradient id="linear-gradient" x1="74.1" y1="29.34" x2="47.19" y2="52.41" gradientUnits="userSpaceOnUse"><stop offset="0" stop-color="#fff"/><stop offset="0.05" stop-color="#fff" stop-opacity="0.88"/><stop offset="0.15" stop-color="#fff" stop-opacity="0.68"/><stop offset="0.26" stop-color="#fff" stop-opacity="0.5"/><stop offset="0.37" stop-color="#fff" stop-opacity="0.34"/><stop offset="0.48" stop-color="#fff" stop-opacity="0.22"/><stop offset="0.6" stop-color="#fff" stop-opacity="0.12"/><stop offset="0.72" stop-color="#fff" stop-opacity="0.05"/><stop offset="0.85" stop-color="#fff" stop-opacity="0.01"/><stop offset="1" stop-color="#fff" stop-opacity="0"/><stop offset="1" stop-color="#232020" stop-opacity="0"/></linearGradient></defs><title>app emojis2</title><rect class="cls-1" width="100" height="100" rx="11.56"/><circle class="cls-2" cx="50.14" cy="50" r="45.68"/><circle class="cls-3" cx="50" cy="50" r="41.86"/><path class="cls-4" d="M13.89,50.18C13.24,25,24.61,11.92,44.09,4.68A45.69,45.69,0,1,0,62,94a32.54,32.54,0,0,1-5.77.36C35.37,93.34,14.53,75.4,13.89,50.18Z"/><ellipse class="cls-5" cx="33.1" cy="44.18" rx="6.01" ry="7.82"/><path class="cls-5" d="M34,36.45s2.93,4.68.31,4.68a55.77,55.77,0,0,0-15.52,1.25C14.6,43.29,23.05,34.31,34,36.45Z"/><ellipse class="cls-5" cx="73.6" cy="44.18" rx="6.01" ry="7.82"/><path class="cls-5" d="M74.46,36.45s2.93,4.68.31,4.68a55.77,55.77,0,0,0-15.52,1.25C55.1,43.29,63.55,34.31,74.46,36.45Z"/><path class="cls-5" d="M61.15,66.53c0,5.19-4.95-4.71-11-4.68s-11,10-11,4.77,2.58-11.78,11-11.81C58.28,54.78,61.13,61.34,61.15,66.53Z"/><path class="cls-5" d="M17.09,34.07s1.54-.41,3.77-.85a45.6,45.6,0,0,1,10.71-1c6,.38,1.7-5.87-8.62-3.59S14.43,34.7,17.09,34.07Z"/><path class="cls-5" d="M80.56,34.1s-1.54-.41-3.76-.85a45.18,45.18,0,0,0-10.71-1c-6,.37-1.7-5.87,8.62-3.59S83.22,34.72,80.56,34.1Z"/></svg>