<svg id="Layer_1" data-name="Layer 1" xmlns="http://www.w3.org/2000/svg" xmlns:xlink="http://www.w3.org/1999/xlink" viewBox="0 0 100 100"><defs><style>.cls-1{fill:#fc7849;}.cls-2{fill:#ef6f06;}.cls-3{opacity:0.3;fill:url(#linear-gradient);}.cls-4{fill:#cc5d0a;}.cls-5{fill:#802e19;}</style><linearGradient id="linear-gradient" x1="74.1" y1="29.34" x2="47.19" y2="52.41" gradientUnits="userSpaceOnUse"><stop offset="0" stop-color="#fff"/><stop offset="0.05" stop-color="#fff" stop-opacity="0.88"/><stop offset="0.15" stop-color="#fff" stop-opacity="0.68"/><stop offset="0.26" stop-color="#fff" stop-opacity="0.5"/><stop offset="0.37" stop-color="#fff" stop-opacity="0.34"/><stop offset="0.48" stop-color="#fff" stop-opacity="0.22"/><stop offset="0.6" stop-color="#fff" stop-opacity="0.12"/><stop offset="0.72" stop-color="#fff" stop-opacity="0.05"/><stop offset="0.85" stop-color="#fff" stop-opacity="0.01"/><stop offset="1" stop-color="#fff" stop-opacity="0"/><stop offset="1" stop-color="#232020" stop-opacity="0"/></linearGradient></defs><title>app emojis2</title><rect class="cls-1" width="100" height="100" rx="11.56"/><circle class="cls-2" cx="50.14" cy="50" r="45.68"/><circle class="cls-3" cx="50" cy="50" r="41.86"/><path class="cls-4" d="M13.89,50.18C13.24,25,24.61,11.92,44.09,4.68A45.69,45.69,0,1,0,62,94a32.54,32.54,0,0,1-5.77.36C35.37,93.34,14.53,75.4,13.89,50.18Z"/><ellipse class="cls-5" cx="26.94" cy="48.21" rx="6.01" ry="7.82"/><ellipse class="cls-5" cx="73.57" cy="48.21" rx="6.01" ry="7.82"/><path class="cls-5" d="M16.83,27.87s1.34.85,3.34,1.93A45.3,45.3,0,0,0,30.09,34c5.82,1.42-.13,6.11-9.3.86S14.47,26.48,16.83,27.87Z"/><path class="cls-5" d="M61,68.42c0,5.19-4.94-4.71-11-4.69s-11,10-11,4.77,2.57-11.77,11-11.8C58.13,56.66,61,63.22,61,68.42Z"/><path class="cls-5" d="M81.2,27.58s-1.3.91-3.24,2.09a46,46,0,0,1-9.72,4.63c-5.75,1.69.41,6.1,9.33.43S83.49,26.09,81.2,27.58Z"/></svg>