<svg id="Layer_1" data-name="Layer 1" xmlns="http://www.w3.org/2000/svg" xmlns:xlink="http://www.w3.org/1999/xlink" viewBox="0 0 100 100"><defs><style>.cls-1{fill:#ffde8a;}.cls-2{fill:#faca27;}.cls-3{opacity:0.3;fill:url(#linear-gradient);}.cls-4{fill:#faad1e;}.cls-5{fill:#802e19;}</style><linearGradient id="linear-gradient" x1="74.1" y1="29.34" x2="47.19" y2="52.41" gradientUnits="userSpaceOnUse"><stop offset="0" stop-color="#fff"/><stop offset="0.05" stop-color="#fff" stop-opacity="0.88"/><stop offset="0.15" stop-color="#fff" stop-opacity="0.68"/><stop offset="0.26" stop-color="#fff" stop-opacity="0.5"/><stop offset="0.37" stop-color="#fff" stop-opacity="0.34"/><stop offset="0.48" stop-color="#fff" stop-opacity="0.22"/><stop offset="0.6" stop-color="#fff" stop-opacity="0.12"/><stop offset="0.72" stop-color="#fff" stop-opacity="0.05"/><stop offset="0.85" stop-color="#fff" stop-opacity="0.01"/><stop offset="1" stop-color="#fff" stop-opacity="0"/><stop offset="1" stop-color="#232020" stop-opacity="0"/></linearGradient></defs><title>app emojis2</title><rect class="cls-1" width="100" height="100" rx="11.56"/><circle class="cls-2" cx="50.14" cy="50" r="45.68"/><circle class="cls-3" cx="50" cy="50" r="41.86"/><path class="cls-4" d="M13.89,50.18C13.24,25,24.61,11.92,44.09,4.68A45.69,45.69,0,1,0,62,94a32.54,32.54,0,0,1-5.77.36C35.37,93.34,14.53,75.4,13.89,50.18Z"/><ellipse class="cls-5" cx="64.19" cy="47.82" rx="6.01" ry="7.82"/><path class="cls-5" d="M63.34,40.09s-2.93,4.67-.32,4.67c3.53,0,7.52-.5,15.52,1.25C82.69,46.92,74.25,38,63.34,40.09Z"/><ellipse class="cls-5" cx="23.69" cy="47.82" rx="6.01" ry="7.82"/><path class="cls-5" d="M22.84,40.09s-2.93,4.67-.32,4.67c3.53,0,7.52-.5,15.52,1.25C42.19,46.92,33.75,38,22.84,40.09Z"/><path class="cls-5" d="M20.09,34.71s1.54-.41,3.77-.85a45.6,45.6,0,0,1,10.71-1c6,.38,1.7-5.87-8.62-3.59S17.43,35.33,20.09,34.71Z"/><path class="cls-5" d="M80.56,34.71S79,34.3,76.8,33.86a45.71,45.71,0,0,0-10.71-1c-6,.38-1.7-5.87,8.62-3.59S83.22,35.33,80.56,34.71Z"/><path class="cls-5" d="M39.72,65.93a41.55,41.55,0,0,0,6.89,1.3c16.44,1.54,19.55-5.72,22.17-7.11,8.36-4.43,2,13.25-16.7,13.25C35.4,73.37,35.4,65.89,39.72,65.93Z"/></svg>