<svg id="Layer_1" data-name="Layer 1" xmlns="http://www.w3.org/2000/svg" xmlns:xlink="http://www.w3.org/1999/xlink" viewBox="0 0 100 100"><defs><style>.cls-1{fill:#ebf495;}.cls-2{fill:#cce563;}.cls-3{opacity:0.3;fill:url(#linear-gradient);}.cls-4{fill:#97a546;}.cls-5{fill:#802e19;}</style><linearGradient id="linear-gradient" x1="74.1" y1="29.34" x2="47.19" y2="52.41" gradientUnits="userSpaceOnUse"><stop offset="0" stop-color="#fff"/><stop offset="0.05" stop-color="#fff" stop-opacity="0.88"/><stop offset="0.15" stop-color="#fff" stop-opacity="0.68"/><stop offset="0.26" stop-color="#fff" stop-opacity="0.5"/><stop offset="0.37" stop-color="#fff" stop-opacity="0.34"/><stop offset="0.48" stop-color="#fff" stop-opacity="0.22"/><stop offset="0.6" stop-color="#fff" stop-opacity="0.12"/><stop offset="0.72" stop-color="#fff" stop-opacity="0.05"/><stop offset="0.85" stop-color="#fff" stop-opacity="0.01"/><stop offset="1" stop-color="#fff" stop-opacity="0"/><stop offset="1" stop-color="#232020" stop-opacity="0"/></linearGradient></defs><title>app emojis2</title><rect class="cls-1" width="100" height="100" rx="11.56"/><circle class="cls-2" cx="50.14" cy="50" r="45.68"/><circle class="cls-3" cx="50" cy="50" r="41.86"/><path class="cls-4" d="M13.89,50.18C13.24,25,24.61,11.92,44.09,4.68A45.69,45.69,0,1,0,62,94a32.54,32.54,0,0,1-5.77.36C35.37,93.34,14.53,75.4,13.89,50.18Z"/><path class="cls-5" d="M35,56.41S41.38,63.12,50,62.68a23.92,23.92,0,0,0,11.82-4.36c8.19-6,3.32,14.3-15.27,11.22C30.28,66.85,30.6,55.43,35,56.41Z"/><path class="cls-5" d="M18.4,48.69s4.33-4.58,10.2-4.29a16.45,16.45,0,0,1,8.08,3c5.6,4.1,3.21-11.69-9.5-9.59C16.08,39.63,15.36,49.36,18.4,48.69Z"/><path class="cls-5" d="M79.67,48.69s-4.33-4.58-10.2-4.29a16.37,16.37,0,0,0-8.08,3c-5.6,4.1-3.21-11.69,9.5-9.59C82,39.63,82.71,49.36,79.67,48.69Z"/><path class="cls-5" d="M17.8,30.75s1.54-.41,3.76-.86a45.75,45.75,0,0,1,10.72-1c6,.37,1.7-5.87-8.62-3.59S15.14,31.37,17.8,30.75Z"/><path class="cls-5" d="M78.14,29.72s-1.53-.41-3.76-.85a45.6,45.6,0,0,0-10.71-1c-6,.38-1.7-5.87,8.62-3.59S80.81,30.35,78.14,29.72Z"/></svg>