<svg id="Layer_1" data-name="Layer 1" xmlns="http://www.w3.org/2000/svg" xmlns:xlink="http://www.w3.org/1999/xlink" viewBox="0 0 100 100"><defs><style>.cls-1{fill:#a9f975;}.cls-2{fill:#84d800;}.cls-3{opacity:0.3;fill:url(#linear-gradient);}.cls-4{fill:#74b504;}.cls-5{fill:#802e19;}</style><linearGradient id="linear-gradient" x1="74.1" y1="29.34" x2="47.19" y2="52.41" gradientUnits="userSpaceOnUse"><stop offset="0" stop-color="#fff"/><stop offset="0.05" stop-color="#fff" stop-opacity="0.88"/><stop offset="0.15" stop-color="#fff" stop-opacity="0.68"/><stop offset="0.26" stop-color="#fff" stop-opacity="0.5"/><stop offset="0.37" stop-color="#fff" stop-opacity="0.34"/><stop offset="0.48" stop-color="#fff" stop-opacity="0.22"/><stop offset="0.6" stop-color="#fff" stop-opacity="0.12"/><stop offset="0.72" stop-color="#fff" stop-opacity="0.05"/><stop offset="0.85" stop-color="#fff" stop-opacity="0.01"/><stop offset="1" stop-color="#fff" stop-opacity="0"/><stop offset="1" stop-color="#232020" stop-opacity="0"/></linearGradient></defs><title>app emojis2</title><rect class="cls-1" width="100" height="100" rx="11.56"/><circle class="cls-2" cx="50.14" cy="50" r="45.68"/><circle class="cls-3" cx="50" cy="50" r="41.86"/><path class="cls-4" d="M13.89,50.18C13.24,25,24.61,11.92,44.09,4.68A45.69,45.69,0,1,0,62,94a32.54,32.54,0,0,1-5.77.36C35.37,93.34,14.53,75.4,13.89,50.18Z"/><path class="cls-5" d="M60.69,57.47a11.53,11.53,0,0,1-23.06,0c0-6.37,5.17-.76,11.53-.76S60.69,51.1,60.69,57.47Z"/><ellipse class="cls-5" cx="26.1" cy="45.22" rx="6.01" ry="7.82"/><ellipse class="cls-5" cx="72.73" cy="45.22" rx="6.01" ry="7.82"/><path class="cls-5" d="M20.17,33.87s1.53-.41,3.76-.85a45.13,45.13,0,0,1,10.71-1c6,.37,1.7-5.87-8.62-3.59S17.5,34.49,20.17,33.87Z"/><path class="cls-5" d="M77.1,33.87s-1.53-.41-3.76-.85a45.13,45.13,0,0,0-10.71-1c-6,.37-1.7-5.87,8.62-3.59S79.77,34.49,77.1,33.87Z"/></svg>