<svg id="Layer_1" data-name="Layer 1" xmlns="http://www.w3.org/2000/svg" xmlns:xlink="http://www.w3.org/1999/xlink" viewBox="0 0 100 100"><defs><style>.cls-1{fill:#a9f975;}.cls-2{fill:#84d800;}.cls-3{opacity:0.3;fill:url(#linear-gradient);}.cls-4{fill:#74b504;}.cls-5{fill:#802e19;}</style><linearGradient id="linear-gradient" x1="74.1" y1="29.34" x2="47.19" y2="52.41" gradientUnits="userSpaceOnUse"><stop offset="0" stop-color="#fff"/><stop offset="0.05" stop-color="#fff" stop-opacity="0.88"/><stop offset="0.15" stop-color="#fff" stop-opacity="0.68"/><stop offset="0.26" stop-color="#fff" stop-opacity="0.5"/><stop offset="0.37" stop-color="#fff" stop-opacity="0.34"/><stop offset="0.48" stop-color="#fff" stop-opacity="0.22"/><stop offset="0.6" stop-color="#fff" stop-opacity="0.12"/><stop offset="0.72" stop-color="#fff" stop-opacity="0.05"/><stop offset="0.85" stop-color="#fff" stop-opacity="0.01"/><stop offset="1" stop-color="#fff" stop-opacity="0"/><stop offset="1" stop-color="#232020" stop-opacity="0"/></linearGradient></defs><title>app emojis2</title><rect class="cls-1" width="100" height="100" rx="11.56"/><circle class="cls-2" cx="50.14" cy="50" r="45.68"/><circle class="cls-3" cx="50" cy="50" r="41.86"/><path class="cls-4" d="M13.89,50.18C13.24,25,24.61,11.92,44.09,4.68A45.69,45.69,0,1,0,62,94a32.54,32.54,0,0,1-5.77.36C35.37,93.34,14.53,75.4,13.89,50.18Z"/><path class="cls-5" d="M67.56,59.44a17.56,17.56,0,0,1-35.12,0c0-9.69,7.86-1.15,17.56-1.15S67.56,49.75,67.56,59.44Z"/><ellipse class="cls-5" cx="70.82" cy="43.22" rx="6.01" ry="7.82"/><ellipse class="cls-5" cx="28.82" cy="43.22" rx="6.01" ry="7.82"/><path class="cls-5" d="M20.28,29.48s1.53-.41,3.76-.85a45.13,45.13,0,0,1,10.71-1c6,.37,1.7-5.87-8.62-3.59S17.61,30.1,20.28,29.48Z"/><path class="cls-5" d="M77.21,29.48s-1.53-.41-3.76-.85a45.13,45.13,0,0,0-10.71-1c-6,.37-1.7-5.87,8.62-3.59S79.88,30.1,77.21,29.48Z"/></svg>